# xmcd
# 
# Track frame offsets:
#     150
#     15040
#     28930
#     39507
#     56867
#     73297
#     90825
# 
# Disc length: 1430
# 
# Revision: 0
# Processed by: cddbd v1.5.2PL0 Copyright (c) Steve Scherf et al.
# Submitted via: BonkEnc v1.0.15
# 
DISCID=51059407
DTITLE=I Travel - As the crow flies
DYEAR=1990
DGENRE=
TTITLE0=Dancing alone
TTITLE1=Cinderella
TTITLE2=I don't want to get up anymore
TTITLE3=Just like you
TTITLE4=Aching for Emily
TTITLE5=Running away
TTITLE6=You've still got a choice
EXTD=
EXTT0=
EXTT1=
EXTT2=
EXTT3=
EXTT4=
EXTT5=
EXTT6=
PLAYORDER=
